<?xml version="1.0" encoding="utf-8"?>
<!-- Generator: Adobe Illustrator 15.1.0, SVG Export Plug-In . SVG Version: 6.00 Build 0)  -->
<!DOCTYPE svg PUBLIC "-//W3C//DTD SVG 1.1//EN" "http://www.w3.org/Graphics/SVG/1.1/DTD/svg11.dtd">
<svg version="1.1" id="Layer_1" xmlns="http://www.w3.org/2000/svg" xmlns:xlink="http://www.w3.org/1999/xlink" x="0px" y="0px"
	 width="24px" height="24px" viewBox="0 0 24 24" enable-background="new 0 0 24 24" xml:space="preserve">
<path fill="none" d="M0,0h24v24H0V0z"/>
<path fill="#333333" d="M21.354,0H2.834C1.365,0,0.188,1.19,0.188,2.646v18.52c0,1.455,1.178,2.646,2.646,2.646h18.52
	c1.469,0,2.646-1.191,2.646-2.646V2.646C24,1.19,22.822,0,21.354,0z M9.448,18.521l-6.614-6.614l1.865-1.865l4.749,4.735
	l10.041-10.04l1.864,1.878L9.448,18.521z"/>
<polygon fill="#999999" points="19.901,4.203 9.386,14.72 4.412,9.758 2.459,11.713 9.232,18.487 9.539,18.487 21.854,6.171 "/>
</svg>
